<?xml version="1.0" standalone="no"?>
<!DOCTYPE svg PUBLIC "-//W3C//DTD SVG 20010904//EN"
 "http://www.w3.org/TR/2001/REC-SVG-20010904/DTD/svg10.dtd">
<svg version="1.0" xmlns="http://www.w3.org/2000/svg"
 width="360.000000pt" height="98.000000pt" viewBox="0 0 360.000000 98.000000"
 preserveAspectRatio="xMidYMid meet">
<metadata>
Created by potrace 1.16, written by Peter Selinger 2001-2019
</metadata>
<g transform="translate(0.000000,98.000000) scale(0.100000,-0.100000)"
fill="#7267EF" stroke="none">
<path d="M66 922 c-4 -10 -7 -76 -9 -148 -2 -122 -1 -132 25 -186 32 -68 43
-77 19 -15 -12 32 -16 72 -14 176 1 74 6 138 11 143 13 13 144 -82 139 -101
-3 -12 16 -6 72 22 107 53 198 70 297 56 79 -11 184 -45 241 -79 30 -18 31
-18 36 0 4 17 120 110 137 110 14 0 22 -201 10 -255 -12 -53 -53 -125 -71
-125 -16 0 -2 -83 23 -142 18 -42 19 -54 9 -95 -7 -27 -23 -73 -37 -103 l-24
-55 25 30 c36 43 75 129 75 165 0 18 -16 60 -36 96 l-36 64 30 25 c16 13 40
48 53 77 21 48 23 66 21 188 -2 148 -6 170 -29 170 -8 0 -51 -27 -95 -60 -43
-33 -86 -60 -94 -60 -9 0 -34 11 -57 24 -125 73 -329 73 -454 0 -23 -13 -48
-24 -55 -24 -7 0 -51 27 -97 60 -89 64 -106 70 -115 42z"/>
<path d="M1114 738 c1 -133 -13 -194 -58 -261 l-23 -34 23 -44 c42 -77 26
-178 -43 -281 -16 -23 -32 -49 -37 -55 -6 -10 253 -13 1278 -13 l1286 0 0 405
0 405 -1214 0 -1214 0 2 -122z m444 -48 c47 -29 68 -82 52 -135 -20 -68 -88
-125 -149 -125 -29 0 -30 -2 -48 -82 l-19 -83 -37 -3 c-25 -2 -37 1 -37 10 0
17 77 368 82 372 1 2 20 6 41 10 36 7 37 6 32 -16 -27 -118 -35 -155 -35 -165
0 -22 35 -14 62 15 50 51 63 131 29 173 -15 18 -28 23 -68 23 -93 0 -159 -66
-150 -151 5 -49 -9 -57 -43 -23 -23 23 -24 37 -9 77 37 99 207 158 297 103z
m877 -32 c-4 -13 -8 -30 -10 -38 -2 -8 -6 -26 -9 -40 -5 -24 -4 -25 38 -22 63
5 86 -20 86 -92 0 -117 -72 -206 -168 -206 -54 0 -75 18 -75 66 1 35 59 328
70 347 2 4 20 7 39 7 32 0 35 -2 29 -22z m529 -85 c-4 -16 1 -18 45 -15 45 4
51 1 68 -24 24 -38 22 -125 -5 -186 -26 -60 -71 -90 -129 -86 l-42 3 -16 -71
c-13 -59 -20 -73 -38 -78 -56 -15 -56 -22 -3 234 l50 240 37 0 c30 0 36 -3 33
-17z m256 -1 c0 -14 7 -17 44 -14 37 3 46 0 65 -23 42 -55 22 -176 -40 -238
-35 -35 -42 -38 -86 -36 l-48 3 -15 -69 c-14 -65 -17 -70 -48 -79 -18 -5 -35
-7 -37 -4 -4 4 60 330 90 456 4 18 12 22 40 22 27 0 35 -4 35 -18z m-1522 -39
c-3 -16 -13 -67 -23 -115 -21 -97 -15 -120 24 -99 22 12 39 62 61 174 l14 67
39 0 c32 0 37 -3 33 -17 -17 -57 -46 -209 -42 -220 3 -7 12 -13 21 -13 18 0
19 -5 5 -31 -14 -26 -64 -25 -83 1 l-14 20 -18 -20 c-24 -26 -79 -26 -105 0
-25 25 -25 55 1 180 l22 100 35 0 c32 0 34 -2 30 -27z m286 16 c-5 -8 -1 -8
14 0 30 16 87 14 102 -4 11 -13 15 -13 33 0 12 8 38 15 59 15 29 0 41 -6 54
-25 16 -24 16 -31 -1 -110 -18 -88 -16 -115 10 -115 19 0 19 -9 -2 -32 -24
-27 -69 -23 -90 8 -15 23 -15 33 -4 83 28 125 25 150 -12 135 -23 -8 -43 -59
-63 -156 l-18 -88 -39 0 c-27 0 -38 4 -34 13 2 6 14 59 27 115 22 103 20 129
-11 117 -25 -10 -42 -47 -63 -145 l-21 -95 -39 -3 c-29 -3 -37 0 -34 10 3 7
18 75 33 151 l28 137 39 0 c26 0 37 -4 32 -11z m825 -72 c-34 -149 -35 -157
-10 -164 24 -6 25 -8 11 -34 -14 -26 -66 -26 -82 0 -12 19 -12 19 -36 0 -34
-26 -90 -25 -119 3 -41 39 -26 164 29 228 33 40 60 49 143 49 l83 0 -19 -82z"/>
<path d="M2418 518 c-9 -7 -25 -53 -37 -103 -18 -77 -19 -92 -6 -104 12 -12
17 -12 39 3 14 9 32 29 40 44 43 83 17 201 -36 160z"/>
<path d="M2967 518 c-10 -8 -24 -50 -37 -112 -11 -54 -20 -99 -20 -101 0 -10
35 -13 52 -4 45 24 80 175 48 213 -15 19 -21 20 -43 4z"/>
<path d="M3217 513 c-21 -24 -55 -199 -40 -214 17 -17 58 9 78 49 26 55 32
144 10 165 -21 21 -28 21 -48 0z"/>
<path d="M2693 520 c-48 -19 -89 -155 -60 -195 15 -20 15 -20 44 1 22 17 32
37 47 98 24 99 18 116 -31 96z"/>
<path d="M532 473 c-113 -56 -133 -187 -40 -267 47 -41 84 -50 168 -44 70 5
123 40 154 102 36 74 -4 170 -88 210 -44 21 -150 21 -194 -1z m188 -21 c76
-38 103 -134 57 -203 -66 -100 -236 -90 -287 16 -25 52 -25 78 1 125 41 73
149 103 229 62z"/>
</g>
</svg>
